<svg width="260" height="68" viewBox="0 0 260 68" fill="none" xmlns="http://www.w3.org/2000/svg">
<path d="M0 33.8064C0 15.1357 15.1357 0 33.8064 0H78.1774C96.8483 0 111.984 15.1357 111.984 33.8064V67.6129H33.8064C15.1357 67.6129 0 52.4773 0 33.8064Z" fill="#2246AE"/>
<path d="M78.1774 12.6774H33.8064C22.1372 12.6774 12.6774 22.1372 12.6774 33.8065C12.6774 45.4757 22.1372 54.9355 33.8064 54.9355H78.1774C89.8466 54.9355 99.3064 45.4757 99.3064 33.8065C99.3064 22.1372 89.8466 12.6774 78.1774 12.6774Z" fill="#A5B4FC"/>
<path d="M33.8065 44.371C39.6411 44.371 44.371 39.6411 44.371 33.8065C44.371 27.9718 39.6411 23.2419 33.8065 23.2419C27.9718 23.2419 23.2419 27.9718 23.2419 33.8065C23.2419 39.6411 27.9718 44.371 33.8065 44.371Z" fill="black"/>
<path d="M29.5807 31.6935C30.7476 31.6935 31.6936 30.7475 31.6936 29.5806C31.6936 28.4137 30.7476 27.4677 29.5807 27.4677C28.4138 27.4677 27.4678 28.4137 27.4678 29.5806C27.4678 30.7475 28.4138 31.6935 29.5807 31.6935Z" fill="white"/>
<path d="M80.2903 44.371C86.125 44.371 90.8549 39.6411 90.8549 33.8065C90.8549 27.9718 86.125 23.2419 80.2903 23.2419C74.4557 23.2419 69.7258 27.9718 69.7258 33.8065C69.7258 39.6411 74.4557 44.371 80.2903 44.371Z" fill="black"/>
<path d="M76.0646 31.6935C77.2315 31.6935 78.1775 30.7475 78.1775 29.5806C78.1775 28.4137 77.2315 27.4677 76.0646 27.4677C74.8976 27.4677 73.9517 28.4137 73.9517 29.5806C73.9517 30.7475 74.8976 31.6935 76.0646 31.6935Z" fill="white"/>
<path d="M135.52 47.28H153.04V54H126.88V20.4H135.52V47.28ZM181.851 46.8C181.851 49.2 181.163 51.088 179.787 52.464C178.443 53.808 176.571 54.48 174.171 54.48H163.131C160.731 54.48 158.843 53.808 157.467 52.464C156.123 51.088 155.451 49.2 155.451 46.8V35.76C155.451 33.36 156.123 31.488 157.467 30.144C158.843 28.768 160.731 28.08 163.131 28.08H174.171C176.571 28.08 178.443 28.768 179.787 30.144C181.163 31.488 181.851 33.36 181.851 35.76V46.8ZM173.451 36.48C173.451 35.2 172.811 34.56 171.531 34.56H165.771C164.491 34.56 163.851 35.2 163.851 36.48V46.08C163.851 47.36 164.491 48 165.771 48H171.531C172.811 48 173.451 47.36 173.451 46.08V36.48ZM208.726 53.52C202.742 54.16 197.462 54.48 192.886 54.48C190.71 54.48 188.966 53.824 187.654 52.512C186.342 51.2 185.686 49.456 185.686 47.28V36.24C185.686 33.84 186.358 31.968 187.702 30.624C189.078 29.248 190.966 28.56 193.366 28.56H208.726V35.04H196.006C194.726 35.04 194.086 35.68 194.086 36.96V46.32C194.086 46.8 194.246 47.2 194.566 47.52C194.886 47.84 195.286 48 195.766 48C198.646 48 202.966 47.76 208.726 47.28V53.52ZM222.636 47.76C224.332 47.76 226.252 47.44 228.396 46.8V43.92H221.436C220.956 43.92 220.556 44.08 220.236 44.4C219.916 44.72 219.756 45.12 219.756 45.6V46.08C219.756 46.56 219.916 46.96 220.236 47.28C220.556 47.6 220.956 47.76 221.436 47.76H222.636ZM213.756 29.04C219.612 28.4 224.892 28.08 229.596 28.08C231.772 28.08 233.516 28.736 234.828 30.048C236.14 31.36 236.796 33.104 236.796 35.28V54H229.356L228.876 51.6C227.372 52.592 225.82 53.328 224.22 53.808C222.652 54.256 221.324 54.48 220.236 54.48H218.556C216.38 54.48 214.636 53.824 213.324 52.512C212.012 51.2 211.356 49.456 211.356 47.28V45.12C211.356 42.944 212.012 41.2 213.324 39.888C214.636 38.576 216.38 37.92 218.556 37.92H228.396V36C228.396 35.52 228.236 35.12 227.916 34.8C227.596 34.48 227.196 34.32 226.716 34.32C224.636 34.32 222.332 34.416 219.804 34.608C217.308 34.8 215.292 34.944 213.756 35.04V29.04ZM258.863 54C255.759 54.32 252.719 54.48 249.743 54.48C247.567 54.48 245.823 53.824 244.511 52.512C243.199 51.2 242.543 49.456 242.543 47.28V35.04H239.663V28.56H242.543L243.503 22.8H250.943V28.56H256.943V35.04H250.943V46.08C250.943 46.56 251.103 46.96 251.423 47.28C251.743 47.6 252.143 47.76 252.623 47.76H258.863V54Z" fill="black"/>
</svg>
