<svg width="33" height="66" viewBox="0 0 33 66" fill="none" xmlns="http://www.w3.org/2000/svg">
<path d="M27.5245 65.9997C26.8201 66.0021 26.1241 65.8466 25.4877 65.5448C24.8512 65.243 24.2905 64.8025 23.8467 64.2556L1.07264 35.9725C0.379126 35.129 0 34.0711 0 32.9792C0 31.8874 0.379126 30.8294 1.07264 29.9859L24.6483 1.70289C25.4487 0.740241 26.5987 0.134869 27.8455 0.0199466C29.0923 -0.0949755 30.3337 0.289966 31.2966 1.09009C32.2596 1.89021 32.8651 3.03997 32.98 4.28643C33.095 5.53289 32.71 6.77396 31.9096 7.7366L10.833 33.0028L31.2023 58.269C31.7789 58.9609 32.1452 59.8035 32.2578 60.697C32.3704 61.5905 32.2246 62.4975 31.8377 63.3108C31.4508 64.1241 30.839 64.8095 30.0746 65.286C29.3102 65.7625 28.4253 66.0102 27.5245 65.9997Z" fill="#07a0c3"/>
</svg>
