<svg width="76" height="57" viewBox="0 0 76 57" fill="none" xmlns="http://www.w3.org/2000/svg">
<path d="M49.875 30.875C49.875 34.0244 48.6239 37.0449 46.3969 39.2719C44.1699 41.4989 41.1494 42.75 38 42.75C34.8506 42.75 31.8301 41.4989 29.6031 39.2719C27.3761 37.0449 26.125 34.0244 26.125 30.875C26.125 27.7256 27.3761 24.7051 29.6031 22.4781C31.8301 20.2511 34.8506 19 38 19C41.1494 19 44.1699 20.2511 46.3969 22.4781C48.6239 24.7051 49.875 27.7256 49.875 30.875V30.875Z" fill="#041C32"/>
<path d="M9.5 9.5C6.98044 9.5 4.56408 10.5009 2.78249 12.2825C1.00089 14.0641 0 16.4804 0 19L0 47.5C0 50.0196 1.00089 52.4359 2.78249 54.2175C4.56408 55.9991 6.98044 57 9.5 57H66.5C69.0196 57 71.4359 55.9991 73.2175 54.2175C74.9991 52.4359 76 50.0196 76 47.5V19C76 16.4804 74.9991 14.0641 73.2175 12.2825C71.4359 10.5009 69.0196 9.5 66.5 9.5H60.933C58.4136 9.49946 55.9977 8.49822 54.2165 6.7165L50.2835 2.7835C48.5023 1.00178 46.0864 0.000538055 43.567 0H32.433C29.9136 0.000538055 27.4977 1.00178 25.7165 2.7835L21.7835 6.7165C20.0023 8.49822 17.5864 9.49946 15.067 9.5H9.5ZM11.875 19C11.2451 19 10.641 18.7498 10.1956 18.3044C9.75022 17.859 9.5 17.2549 9.5 16.625C9.5 15.9951 9.75022 15.391 10.1956 14.9456C10.641 14.5002 11.2451 14.25 11.875 14.25C12.5049 14.25 13.109 14.5002 13.5544 14.9456C13.9998 15.391 14.25 15.9951 14.25 16.625C14.25 17.2549 13.9998 17.859 13.5544 18.3044C13.109 18.7498 12.5049 19 11.875 19ZM54.625 30.875C54.625 35.2842 52.8734 39.5129 49.7556 42.6306C46.6379 45.7484 42.4092 47.5 38 47.5C33.5908 47.5 29.3621 45.7484 26.2444 42.6306C23.1266 39.5129 21.375 35.2842 21.375 30.875C21.375 26.4658 23.1266 22.2371 26.2444 19.1194C29.3621 16.0016 33.5908 14.25 38 14.25C42.4092 14.25 46.6379 16.0016 49.7556 19.1194C52.8734 22.2371 54.625 26.4658 54.625 30.875V30.875Z" fill="#041C32"/>
</svg>
