<svg width="11" height="11" viewBox="0 0 11 11" fill="none" xmlns="http://www.w3.org/2000/svg">
<path d="M0.307505 0.307505C0.504459 0.110609 0.771552 0 1.05005 0C1.32854 0 1.59563 0.110609 1.79259 0.307505L5.50634 4.02126L9.22009 0.307505C9.41818 0.11619 9.68348 0.0103283 9.95886 0.0127213C10.2342 0.0151142 10.4977 0.12557 10.6924 0.320299C10.8871 0.515027 10.9976 0.778448 11 1.05383C11.0024 1.3292 10.8965 1.5945 10.7052 1.79259L6.99142 5.50634L10.7052 9.22009C10.8965 9.41818 11.0024 9.68348 11 9.95886C10.9976 10.2342 10.8871 10.4977 10.6924 10.6924C10.4977 10.8871 10.2342 10.9976 9.95886 11C9.68348 11.0024 9.41818 10.8965 9.22009 10.7052L5.50634 6.99142L1.79259 10.7052C1.5945 10.8965 1.3292 11.0024 1.05383 11C0.778448 10.9976 0.515027 10.8871 0.320299 10.6924C0.12557 10.4977 0.0151142 10.2342 0.0127213 9.95886C0.0103283 9.68348 0.11619 9.41818 0.307505 9.22009L4.02126 5.50634L0.307505 1.79259C0.110609 1.59563 0 1.32854 0 1.05005C0 0.771552 0.110609 0.504459 0.307505 0.307505V0.307505Z" fill="#041C32"/>
</svg>
