<svg width="14" height="7" viewBox="0 0 14 7" fill="none" xmlns="http://www.w3.org/2000/svg">
<path d="M13.9999 1.16146C14.0004 1.31088 13.9675 1.45852 13.9034 1.59352C13.8394 1.72853 13.746 1.84747 13.63 1.9416L7.63053 6.77247C7.45162 6.91958 7.22719 7 6.99559 7C6.76399 7 6.53957 6.91958 6.36065 6.77247L0.361218 1.77157C0.157021 1.6018 0.0286085 1.35785 0.0042311 1.09337C-0.0201463 0.828899 0.0615079 0.56557 0.23123 0.361317C0.400953 0.157063 0.644841 0.028616 0.909243 0.00423185C1.17364 -0.0201523 1.4369 0.0615239 1.6411 0.231293L7.00059 4.7021L12.3601 0.381321C12.5069 0.259015 12.6856 0.181324 12.8751 0.157441C13.0646 0.133557 13.257 0.164479 13.4296 0.24655C13.6021 0.32862 13.7475 0.458404 13.8485 0.620543C13.9496 0.782683 14.0022 0.970392 13.9999 1.16146Z" fill="#041C32"/>
</svg>
