<svg width="16" height="19" viewBox="0 0 16 19" fill="none" xmlns="http://www.w3.org/2000/svg">
<path d="M0.293 7.29279L7.293 0.292786C7.48053 0.105315 7.73484 0 8 0C8.26516 0 8.51947 0.105315 8.707 0.292786L15.707 7.29279C15.8946 7.48028 15.9999 7.73459 16 7.99979V17.5858C16 17.851 15.8946 18.1054 15.7071 18.2929C15.5196 18.4804 15.2652 18.5858 15 18.5858H10V11.5858H6V18.5858H1C0.734784 18.5858 0.48043 18.4804 0.292893 18.2929C0.105357 18.1054 0 17.851 0 17.5858V7.99979C5.66374e-05 7.73459 0.105451 7.48028 0.293 7.29279Z" fill="white"/>
</svg>
