<svg width="69" height="65" viewBox="0 0 69 65" fill="none" xmlns="http://www.w3.org/2000/svg">
<path d="M67.5691 31.9782L38.1609 2.66091L36.1897 0.694788C35.7406 0.249765 35.1332 0 34.5001 0C33.8671 0 33.2597 0.249765 32.8105 0.694788L1.43115 31.9782C0.970931 32.4354 0.607213 32.98 0.361465 33.5798C0.115716 34.1795 -0.00708284 34.8223 0.000315466 35.4702C0.0307587 38.1423 2.26073 40.2754 4.93973 40.2754H8.17433V65H60.826V40.2754H64.129C65.4305 40.2754 66.6558 39.7668 67.5767 38.8483C68.0302 38.3974 68.3895 37.8613 68.6338 37.2711C68.8781 36.6808 69.0025 36.048 69 35.4094C69 34.1189 68.49 32.8967 67.5691 31.9782ZM38.7622 59.5343H30.2381V44.0482H38.7622V59.5343ZM55.3462 34.8097V59.5343H43.6331V42.2263C43.6331 40.5487 42.2708 39.1899 40.5888 39.1899H28.4115C26.7295 39.1899 25.3672 40.5487 25.3672 42.2263V59.5343H13.6541V34.8097H6.34774L34.5077 6.74499L36.2658 8.49856L62.6602 34.8097H55.3462Z" fill="white"/>
</svg>
