<svg width="16" height="16" viewBox="0 0 16 16" fill="none" xmlns="http://www.w3.org/2000/svg">
<path d="M4.57143 0C4.64881 0 4.71577 0.0282738 4.77232 0.0848214C4.82887 0.141369 4.85714 0.208333 4.85714 0.285714V13.4286C4.85714 13.5476 4.80655 13.631 4.70536 13.6786L0.419643 15.9643C0.377976 15.9881 0.333333 16 0.285714 16C0.208333 16 0.141369 15.9717 0.0848214 15.9152C0.0282738 15.8586 0 15.7917 0 15.7143V2.57143C0 2.45238 0.0505952 2.36905 0.151786 2.32143L4.4375 0.0357143C4.47917 0.0119048 4.52381 0 4.57143 0ZM15.7143 0C15.7917 0 15.8586 0.0282738 15.9152 0.0848214C15.9717 0.141369 16 0.208333 16 0.285714V13.4286C16 13.5476 15.9494 13.631 15.8482 13.6786L11.5625 15.9643C11.5208 15.9881 11.4762 16 11.4286 16C11.3512 16 11.2842 15.9717 11.2277 15.9152C11.1711 15.8586 11.1429 15.7917 11.1429 15.7143V2.57143C11.1429 2.45238 11.1935 2.36905 11.2946 2.32143L15.5804 0.0357143C15.622 0.0119048 15.6667 0 15.7143 0ZM5.71429 0C5.76191 0 5.80357 0.00892857 5.83929 0.0267857L10.4107 2.3125C10.5179 2.37202 10.5714 2.45833 10.5714 2.57143V15.7143C10.5714 15.7917 10.5432 15.8586 10.4866 15.9152C10.4301 15.9717 10.3631 16 10.2857 16C10.2381 16 10.1964 15.9911 10.1607 15.9732L5.58929 13.6875C5.48214 13.628 5.42857 13.5417 5.42857 13.4286V0.285714C5.42857 0.208333 5.45685 0.141369 5.51339 0.0848214C5.56994 0.0282738 5.63691 0 5.71429 0Z" fill="white"/>
</svg>
