<svg width="65" height="65" viewBox="0 0 65 65" fill="none" xmlns="http://www.w3.org/2000/svg">
<path d="M20.1916 8.06611L10.9196 4.97205C9.90063 4.63268 8.81565 4.5403 7.75402 4.70252C6.69239 4.86473 5.6845 5.2769 4.81342 5.90506C3.94233 6.53322 3.23299 7.35939 2.74384 8.31548C2.25469 9.27157 1.99974 10.3302 2 11.4042V51.3354C1.99966 52.7585 2.44726 54.1456 3.27936 55.3001C4.11145 56.4546 5.28583 57.3179 6.636 57.7675L20.1916 62.2849C21.5819 62.748 23.0848 62.748 24.4751 62.2849L40.5249 56.9373C41.9152 56.4742 43.4181 56.4742 44.8084 56.9373L54.0804 60.0279C55.0996 60.3674 56.1849 60.4597 57.2468 60.2973C58.3087 60.135 59.3168 59.7225 60.188 59.0939C61.0591 58.4654 61.7684 57.6388 62.2573 56.6822C62.7462 55.7257 63.0008 54.6667 63 53.5924V13.6646C63.0006 12.2419 62.5535 10.8551 61.722 9.70066C60.8906 8.54624 59.7169 7.68272 58.3674 7.23244L44.8118 2.71505C43.4205 2.25123 41.9162 2.25123 40.5249 2.71505L24.4717 8.06272C23.0814 8.52578 21.5785 8.52578 20.1882 8.06272L20.1916 8.06611Z" stroke="white" stroke-width="5" stroke-linecap="round" stroke-linejoin="round"/>
<path d="M42.6666 2V56.2222M22.3333 8.77778V63V8.77778Z" stroke="white" stroke-width="5" stroke-linejoin="round"/>
</svg>
