<svg width="46" height="62" viewBox="0 0 46 62" fill="none" xmlns="http://www.w3.org/2000/svg">
<path d="M22.999 14.5479C21.325 14.5479 19.6886 15.0443 18.2967 15.9743C16.9048 16.9043 15.8199 18.2262 15.1793 19.7728C14.5387 21.3194 14.3711 23.0212 14.6977 24.663C15.0243 26.3049 15.8304 27.813 17.0141 28.9967C18.1978 30.1804 19.7059 30.9865 21.3477 31.3131C22.9896 31.6397 24.6914 31.4721 26.238 30.8314C27.7846 30.1908 29.1065 29.106 30.0365 27.7141C30.9665 26.3222 31.4629 24.6858 31.4629 23.0118C31.4604 20.7678 30.5678 18.6164 28.9811 17.0297C27.3943 15.443 25.243 14.5504 22.999 14.5479V14.5479ZM22.999 27.2438C22.162 27.2438 21.3438 26.9956 20.6478 26.5305C19.9519 26.0655 19.4095 25.4046 19.0891 24.6313C18.7688 23.858 18.685 23.0071 18.8483 22.1862C19.0116 21.3653 19.4147 20.6112 20.0065 20.0193C20.5984 19.4275 21.3524 19.0244 22.1734 18.8611C22.9943 18.6978 23.8452 18.7817 24.6185 19.102C25.3918 19.4223 26.0527 19.9647 26.5177 20.6606C26.9827 21.3566 27.231 22.1748 27.231 23.0118C27.2297 24.1338 26.7834 25.2094 25.99 26.0028C25.1966 26.7962 24.121 27.2425 22.999 27.2438V27.2438Z" fill="black"/>
<path d="M39.2632 6.7348C35.2419 2.71449 29.8739 0.326256 24.1952 0.0310409C18.5166 -0.264174 12.9299 1.55456 8.51334 5.13621C4.09681 8.71787 1.16353 13.8085 0.27964 19.4257C-0.604248 25.0429 0.623912 30.7884 3.72708 35.5533L19.7169 60.1005C20.0728 60.6467 20.5593 61.0955 21.1324 61.4061C21.7055 61.7168 22.3471 61.8795 22.999 61.8795C23.6509 61.8795 24.2925 61.7168 24.8656 61.4061C25.4387 61.0955 25.9253 60.6467 26.2811 60.1005L42.2715 35.5533C45.1509 31.1332 46.4234 25.8576 45.8757 20.6108C45.328 15.3641 42.9934 10.465 39.2632 6.7348V6.7348ZM38.7256 33.2433L22.9991 57.3854L7.27242 33.2433C2.45855 25.8534 3.49102 15.9638 9.72736 9.7272C11.4702 7.9843 13.5393 6.60176 15.8165 5.6585C18.0936 4.71525 20.5343 4.22976 22.9991 4.22976C25.4639 4.22976 27.9045 4.71525 30.1817 5.6585C32.4589 6.60176 34.528 7.9843 36.2708 9.7272C42.5071 15.9638 43.5395 25.8534 38.7256 33.2433Z" fill="black"/>
</svg>
