<svg width="14" height="15" viewBox="0 0 14 15" fill="none" xmlns="http://www.w3.org/2000/svg">
<path d="M8.31332 14.4297H5.68712C5.52257 14.4297 5.36296 14.3735 5.23475 14.2704C5.10654 14.1672 5.01744 14.0233 4.98223 13.8626L4.68858 12.5033C4.29686 12.3317 3.92542 12.1171 3.5811 11.8634L2.25574 12.2854C2.09886 12.3355 1.92959 12.3303 1.77604 12.2709C1.62248 12.2114 1.49389 12.1012 1.4116 11.9586L0.095612 9.68521C0.014189 9.54245 -0.0163751 9.37629 0.00892002 9.2139C0.0342152 9.05152 0.113872 8.90252 0.234858 8.79129L1.26297 7.85336C1.21622 7.42849 1.21622 6.99977 1.26297 6.57489L0.234858 5.63913C0.113701 5.52785 0.0339355 5.37872 0.0086362 5.21618C-0.0166631 5.05363 0.0140043 4.88732 0.095612 4.74448L1.40871 2.46964C1.491 2.32702 1.6196 2.21683 1.77315 2.15737C1.9267 2.09792 2.09597 2.09278 2.25285 2.14281L3.57822 2.56488C3.75426 2.43501 3.93752 2.3138 4.12655 2.20414C4.30908 2.10169 4.49667 2.00861 4.68858 1.92564L4.98295 0.567808C5.01799 0.40706 5.10692 0.263117 5.235 0.159844C5.36307 0.0565715 5.5226 0.000173132 5.68712 0H8.31332C8.47785 0.000173132 8.63737 0.0565715 8.76544 0.159844C8.89352 0.263117 8.98245 0.40706 9.01749 0.567808L9.31474 1.92636C9.70597 2.09899 10.0773 2.31357 10.4222 2.56632L11.7483 2.14425C11.9051 2.09441 12.0742 2.09964 12.2276 2.15909C12.381 2.21853 12.5095 2.32861 12.5917 2.47109L13.9048 4.74593C14.0722 5.03957 14.0145 5.41114 13.7656 5.63985L12.7375 6.57778C12.7842 7.00265 12.7842 7.43137 12.7375 7.85625L13.7656 8.79418C14.0145 9.02361 14.0722 9.39445 13.9048 9.6881L12.5917 11.9629C12.5094 12.1056 12.3808 12.2158 12.2273 12.2752C12.0737 12.3347 11.9045 12.3398 11.7476 12.2898L10.4222 11.8677C10.0782 12.1212 9.70697 12.3356 9.31547 12.5069L9.01749 13.8626C8.98231 14.0232 8.89331 14.167 8.76525 14.2701C8.63719 14.3733 8.47775 14.4296 8.31332 14.4297V14.4297ZM6.99734 4.32891C6.23194 4.32891 5.49789 4.63296 4.95667 5.17418C4.41545 5.7154 4.1114 6.44945 4.1114 7.21485C4.1114 7.98025 4.41545 8.7143 4.95667 9.25552C5.49789 9.79673 6.23194 10.1008 6.99734 10.1008C7.76273 10.1008 8.49678 9.79673 9.038 9.25552C9.57922 8.7143 9.88327 7.98025 9.88327 7.21485C9.88327 6.44945 9.57922 5.7154 9.038 5.17418C8.49678 4.63296 7.76273 4.32891 6.99734 4.32891V4.32891Z" fill="white"/>
</svg>
