<svg width="62" height="66" viewBox="0 0 62 66" fill="none" xmlns="http://www.w3.org/2000/svg">
<path d="M31 0C27.5938 0 24.264 1.01007 21.4318 2.90247C18.5997 4.79487 16.3923 7.48461 15.0887 10.6316C13.7852 13.7785 13.4442 17.2413 14.1087 20.5821C14.7732 23.9229 16.4135 26.9916 18.822 29.4002C21.2306 31.8087 24.2993 33.449 27.6401 34.1135C30.9809 34.778 34.4437 34.437 37.5907 33.1335C40.7376 31.83 43.4274 29.6226 45.3198 26.7904C47.2122 23.9582 48.2222 20.6285 48.2222 17.2222C48.2222 12.6546 46.4077 8.27407 43.1779 5.04427C39.9482 1.81448 35.5676 0 31 0V0ZM31 27.5556C28.9563 27.5556 26.9584 26.9495 25.2591 25.8141C23.5598 24.6786 22.2353 23.0648 21.4532 21.1766C20.6711 19.2884 20.4665 17.2108 20.8652 15.2063C21.2639 13.2018 22.2481 11.3606 23.6932 9.91545C25.1384 8.47031 26.9796 7.48616 28.9841 7.08744C30.9885 6.68873 33.0662 6.89336 34.9544 7.67547C36.8426 8.45757 38.4564 9.78202 39.5919 11.4813C40.7273 13.1806 41.3333 15.1785 41.3333 17.2222C41.3333 19.9628 40.2446 22.5911 38.3068 24.529C36.3689 26.4669 33.7406 27.5556 31 27.5556V27.5556ZM62 65.4444V62C62 55.6053 59.4597 49.4726 54.938 44.9509C50.4163 40.4292 44.2836 37.8889 37.8889 37.8889H24.1111C17.7164 37.8889 11.5837 40.4292 7.06198 44.9509C2.54027 49.4726 0 55.6053 0 62V65.4444H6.88889V62C6.88889 57.4324 8.70337 53.0518 11.9332 49.822C15.163 46.5923 19.5435 44.7778 24.1111 44.7778H37.8889C42.4565 44.7778 46.837 46.5923 50.0668 49.822C53.2966 53.0518 55.1111 57.4324 55.1111 62V65.4444H62Z" fill="white"/>
</svg>
